<?xml version="1.0" encoding="UTF-8"?><svg id="Layer_2" xmlns="http://www.w3.org/2000/svg" xmlns:xlink="http://www.w3.org/1999/xlink" viewBox="0 0 219.18 219.13"><defs><style>.cls-1{fill:#211f1d;}.cls-2{fill:url(#linear-gradient-2);}.cls-3{fill:url(#linear-gradient-6);}.cls-4{fill:url(#linear-gradient-10);}.cls-5{fill:url(#linear-gradient-5);}.cls-6{fill:url(#linear-gradient-7);}.cls-7{fill:url(#linear-gradient-9);}.cls-8{fill:url(#linear-gradient-3);}.cls-9{fill:url(#linear-gradient);}.cls-10{fill:url(#linear-gradient-4);}.cls-11{fill:url(#linear-gradient-8);}</style><linearGradient id="linear-gradient" x1="164.4" y1="204.47" x2="54.82" y2="14.66" gradientUnits="userSpaceOnUse"><stop offset=".04" stop-color="#ef5925"/><stop offset=".12" stop-color="#db4627"/><stop offset=".34" stop-color="#f37327"/><stop offset=".54" stop-color="#f78d20"/><stop offset=".72" stop-color="#c53727"/><stop offset=".8" stop-color="#d14b2d"/><stop offset=".89" stop-color="#f68921"/><stop offset="1" stop-color="#f3742a"/></linearGradient><linearGradient id="linear-gradient-2" x1="68.91" y1="49.14" x2="58.72" y2="70.19" gradientUnits="userSpaceOnUse"><stop offset=".04" stop-color="#f3ab20"/><stop offset=".36" stop-color="#ed5525"/><stop offset=".69" stop-color="#f26a29"/><stop offset=".95" stop-color="#f3742a"/></linearGradient><linearGradient id="linear-gradient-3" x1="139.02" y1="28.26" x2="177.67" y2="95.2" gradientUnits="userSpaceOnUse"><stop offset=".04" stop-color="#f47d21"/><stop offset=".43" stop-color="#f58421"/><stop offset=".72" stop-color="#f7b618"/><stop offset="1" stop-color="#f3742a"/></linearGradient><linearGradient id="linear-gradient-4" x1="43.38" y1="123.85" x2="81.84" y2="190.46" gradientUnits="userSpaceOnUse"><stop offset=".04" stop-color="#f47d21"/><stop offset=".43" stop-color="#f4ac1f"/><stop offset=".69" stop-color="#f26a29"/><stop offset="1" stop-color="#f3742a"/></linearGradient><linearGradient id="linear-gradient-5" x1="155.6" y1="153.16" x2="171.14" y2="180.08" gradientUnits="userSpaceOnUse"><stop offset=".04" stop-color="#f5b01b"/><stop offset=".43" stop-color="#f5af1b"/><stop offset=".43" stop-color="#f4ad1b"/><stop offset=".45" stop-color="#f2921e"/><stop offset=".47" stop-color="#f07b20"/><stop offset=".49" stop-color="#ee6a22"/><stop offset=".52" stop-color="#ed5e23"/><stop offset=".56" stop-color="#ed5624"/><stop offset=".66" stop-color="#ed5525"/><stop offset="1" stop-color="#f3742a"/></linearGradient><linearGradient id="linear-gradient-6" x1="104.33" y1="180.93" x2="114.98" y2="199.37" gradientUnits="userSpaceOnUse"><stop offset=".04" stop-color="#f47d21"/><stop offset=".43" stop-color="#ed5525"/><stop offset=".69" stop-color="#f26a29"/><stop offset="1" stop-color="#f3742a"/></linearGradient><linearGradient id="linear-gradient-7" x1="105.04" y1="26.14" x2="114.7" y2="42.87" gradientUnits="userSpaceOnUse"><stop offset=".04" stop-color="#f47d21"/><stop offset=".43" stop-color="#ef9b22"/><stop offset=".69" stop-color="#f26a29"/><stop offset="1" stop-color="#f3742a"/></linearGradient><linearGradient id="linear-gradient-8" x1="28.67" y1="100.64" x2="38.76" y2="118.1" gradientUnits="userSpaceOnUse"><stop offset=".04" stop-color="#f47d21"/><stop offset=".43" stop-color="#f3ae1c"/><stop offset=".69" stop-color="#f26a29"/><stop offset="1" stop-color="#f3742a"/></linearGradient><linearGradient id="linear-gradient-9" x1="180.01" y1="100.26" x2="190.37" y2="118.2" gradientUnits="userSpaceOnUse"><stop offset=".04" stop-color="#f47d21"/><stop offset=".43" stop-color="#ed5525"/><stop offset=".69" stop-color="#ed8e22"/><stop offset="1" stop-color="#f3742a"/></linearGradient><linearGradient id="linear-gradient-10" x1="94.3" y1="82.58" x2="124.95" y2="135.67" xlink:href="#linear-gradient-6"/></defs><g id="Layer_1-2"><circle class="cls-9" cx="109.61" cy="109.57" r="109.57"/><path class="cls-1" d="m109.61,96.07v28.56c2.94-6.85,12.91-14.67,12.91-14.67-6.26-3.52-12.91-13.89-12.91-13.89Z"/><path class="cls-1" d="m217.17,88.87h-22.51c-7.96-31.41-32.66-56.15-64.05-64.17V2.03C123.8.69,116.77,0,109.57,0s-14,.67-20.7,1.96v22.17C56.37,31.49,30.63,56.68,22.48,88.87H1.96c-1.29,6.7-1.96,13.62-1.96,20.7s.69,14.23,2.03,21.04h19.97c7.57,33.15,33.7,59.23,66.87,66.74v19.82c6.7,1.29,13.62,1.96,20.7,1.96s14.23-.69,21.04-2.03v-20.31c32.05-8.19,57.13-33.81,64.53-66.18h21.96c1.34-6.81,2.03-13.84,2.03-21.04s-.67-14-1.96-20.7Zm-87.48-54.81c27.67,7.35,49.06,29.2,55.8,57.03l-2.92.71c-6.49-26.75-27.05-47.76-53.66-54.83l.77-2.9Zm-20.12-10.12c0,2.03,9.12,11.15,11.15,11.15-2.03,0-11.15,9.12-11.15,11.15,0-2.03-9.12-11.15-11.15-11.15,2.03,0,11.15-9.12,11.15-11.15Zm-18.44,9.69l.71,2.92c-27.03,6.54-48.73,28.22-55.27,55.25l-2.92-.71c6.81-28.1,29.38-50.65,57.49-57.45ZM29.69,110.77c-3.06.2-7.06,4.64-7.06,4.64v-10.08c2.54,3.28,7,4.48,7,4.48-4.31-3.32-2.32-10.13,2.83-10.13,6.16,0,9.3,7.95,15.03,10.64l.08.04-.08.04c-5.73,2.69-8.87,10.64-15.03,10.64-5.25,0-7.44-7.02-2.77-10.26Zm61.44,74.73c-27.86-6.74-49.74-28.14-57.08-55.85l2.9-.77c7.06,26.65,28.09,47.23,54.88,53.71l-.71,2.92Zm19.26,9.44c-3.17,5.83-11.24,3.57-11.24-2.21,0-6.48,8.37-8.77,11.2-14.81l.04-.08.04.08c2.83,6.03,11.2,8.32,11.2,14.81,0,5.78-8.07,8.05-11.24,2.21Zm-.82-49.99s-3.48-21.71-24.97-34.82c0,0,21.59-12.63,24.97-35.96,0,0,2.72,20.7,24.96,35.96,0,0-19.25,10.49-24.96,34.82Zm20.12,40.12l-.77-2.9c25.98-6.9,46.39-27.32,53.27-53.29l2.9.77c-7.15,27.01-28.38,48.25-55.4,55.43Zm64.3-70.47c-2.54-3.28-7-4.48-7-4.48h0c-.3-.07-.62-.11-.95-.11.17.91.33,1.69,1.01,2.3,1.23.59,2.25,1.84,2.57,3.25.06.28.1.57.1.87,0,.19-.01.38-.04.56-.28,2.16-2.12,3.83-4.36,3.83-2.43,0-4.4-1.97-4.4-4.4,0-1.75,1.02-3.25,2.5-3.96.66-.55.95-1.41,1.14-2.28-1.11.23-2.4.55-2.92,1.26-.71,1.48-2.21,2.5-3.96,2.5-2.43,0-4.4-1.97-4.4-4.4s1.97-4.4,4.4-4.4c1.75,0,3.25,1.02,3.96,2.5.69.83,1.85,1.07,2.92,1.27-.19-.87-.48-1.73-1.14-2.29-1.48-.71-2.5-2.21-2.5-3.96,0-2.42,1.97-4.4,4.4-4.4,2.24,0,4.08,1.67,4.36,3.83.02.18.04.37.04.56,0,.3-.03.59-.1.87-.31,1.41-1.34,2.66-2.57,3.25-.69.62-.84,1.42-1.02,2.34.21,0,.54.01.92.01,3.06-.23,7.03-4.63,7.03-4.63v10.08Z"/><path class="cls-2" d="m92.14,35.97l-.71-2.92c-28.11,6.8-50.67,29.35-57.49,57.45l2.92.71c6.55-27.02,28.25-48.71,55.27-55.25Z"/><path class="cls-8" d="m182.88,91.21l2.92-.71c-6.75-27.82-28.13-49.67-55.8-57.03l-.77,2.9c26.61,7.07,47.17,28.08,53.66,54.83Z"/><path class="cls-10" d="m37.25,128.3l-2.9.77c7.34,27.72,29.21,49.12,57.08,55.85l.71-2.92c-26.79-6.48-47.82-27.06-54.88-53.71Z"/><path class="cls-5" d="m129.22,181.59l.77,2.9c27.02-7.18,48.24-28.41,55.4-55.43l-2.9-.77c-6.88,25.97-27.29,46.39-53.27,53.29Z"/><path class="cls-3" d="m110.74,177.34l-.04-.08-.04.08c-2.83,6.03-11.2,8.32-11.2,14.81,0,5.78,8.07,8.05,11.24,2.21,3.17,5.83,11.24,3.57,11.24-2.21,0-6.48-8.37-8.77-11.2-14.81Z"/><path class="cls-6" d="m109.87,45.66c0-2.03,9.12-11.15,11.15-11.15-2.03,0-11.15-9.12-11.15-11.15,0,2.03-9.12,11.15-11.15,11.15,2.03,0,11.15,9.12,11.15,11.15Z"/><path class="cls-11" d="m47.79,109.81l.08-.04-.08-.04c-5.73-2.69-8.87-10.64-15.03-10.64-5.15,0-7.14,6.81-2.83,10.13,0,0-4.46-1.2-7-4.48v10.08s4-4.43,7.06-4.64c-4.68,3.24-2.48,10.26,2.77,10.26,6.16,0,9.3-7.95,15.03-10.64Z"/><path class="cls-7" d="m187.26,108.58c-.38,0-.72,0-.92-.01.17-.92.33-1.72,1.02-2.34,1.23-.59,2.25-1.84,2.57-3.25.06-.28.1-.57.1-.87,0-.19-.01-.38-.04-.56-.28-2.16-2.12-3.83-4.36-3.83-2.43,0-4.4,1.97-4.4,4.4,0,1.75,1.02,3.25,2.5,3.96.66.55.95,1.42,1.14,2.29-1.06-.19-2.23-.44-2.92-1.27-.71-1.48-2.21-2.5-3.96-2.5-2.43,0-4.4,1.97-4.4,4.4s1.97,4.4,4.4,4.4c1.75,0,3.25-1.02,3.96-2.5.52-.71,1.81-1.03,2.92-1.26-.19.87-.48,1.73-1.14,2.28-1.48.71-2.5,2.21-2.5,3.96,0,2.42,1.97,4.4,4.4,4.4,2.24,0,4.08-1.67,4.36-3.83.02-.18.04-.37.04-.56,0-.3-.03-.59-.1-.87-.31-1.41-1.34-2.66-2.57-3.25-.68-.62-.84-1.4-1.01-2.3.33,0,.64.04.95.11h0s4.46,1.2,7,4.48v-10.08s-3.97,4.4-7.03,4.63Z"/><path class="cls-4" d="m109.87,73.59c-3.38,23.33-24.97,35.96-24.97,35.96,21.49,13.11,24.97,34.82,24.97,34.82,5.71-24.33,24.96-34.82,24.96-34.82-22.24-15.26-24.96-35.96-24.96-35.96Zm.04,50.46v-28.56s6.65,10.37,12.91,13.89c0,0-9.97,7.82-12.91,14.67Z"/></g></svg>